# xmcd
#
# Track frame offsets:
#	150
#	13475
#	27716
#	41233
#	53240
#	66644
#	80631
#	93276
#	107274
#	121484
#	135711
#	149115
#	163302
#	175907
#	189367
#	203109
#
# Disc length: 2889
#
# Revision: 2
# Processed by: cddbd v1.5.1PL0 Copyright (c) Steve Scherf et al.
# Submitted via: EasyCDDAExtractor 7.0.6.1
# Normalized: r1:DSETVAR1
#
DISCID=f80b4710
DTITLE=Various Artist - Country Superstars  Jimmie Rodgers - The Carter Family
DYEAR=1900
DGENRE=Country
TTITLE0=Jimmie Rodgers - Pistol Packin' Papa
TTITLE1=Jimmie Rodgers - Take Me Back Again
TTITLE2=Jimmie Rodgers - Blue Yodell Number 11
TTITLE3=Jimmie Rodgers - Nobody's Knows But Me
TTITLE4=Jimmie Rodgers - Daddy and Home
TTITLE5=Jimmie Rodgers - My Little Lady
TTITLE6=Jimmie Rodgers - Any Old Time
TTITLE7=Jimmie Rodgers - My Old Pal
TTITLE8=The Carter Family - Can The Circle Be Unbroken
TTITLE9=The Carter Family - Answer To Weeping Willow
TTITLE10=The Carter Family - My Dixie Darling
TTITLE11=The Carter Family - You Are My Flower
TTITLE12=The Carter Family - Hello Stranger
TTITLE13=The Carter Family - Coal Miner's Blues
TTITLE14=The Carter Family - Bonnie Blue Eyes
TTITLE15=The Carter Family - Lover's Lane
EXTD=
EXTT0=
EXTT1=
EXTT2=
EXTT3=
EXTT4=
EXTT5=
EXTT6=
EXTT7=
EXTT8=
EXTT9=
EXTT10=
EXTT11=
EXTT12=
EXTT13=
EXTT14=
EXTT15=
PLAYORDER=
